<svg width="2000" height="2000" viewBox="0 0 2000 2000" fill="none" xmlns="http://www.w3.org/2000/svg">
<g clip-path="url(#clip0_1066_43)">
<rect width="2000" height="2000" fill="#333333"/>
<path d="M2000 0H0V2000H2000V0Z" fill="#224A5C"/>
<path d="M1000.17 1662.17C1368.08 1662.17 1666.33 1364.14 1666.33 996.502C1666.33 628.864 1368.08 330.835 1000.17 330.835C632.253 330.835 334 628.864 334 996.502C334 1364.14 632.253 1662.17 1000.17 1662.17Z" fill="white"/>
<path d="M1000.24 1529.47C1291.42 1529.47 1527.47 1293.65 1527.47 1002.74C1527.47 711.828 1291.42 476 1000.24 476C709.052 476 473 711.828 473 1002.74C473 1293.65 709.052 1529.47 1000.24 1529.47Z" fill="#224A5C"/>
<path d="M1000 1261V1203.67H1200.67V802.333H1000V745H1200.67C1216.43 745 1229.93 750.614 1241.16 761.842C1252.39 773.069 1258 786.567 1258 802.333V1203.67C1258 1219.43 1252.39 1232.93 1241.16 1244.16C1229.93 1255.39 1216.43 1261 1200.67 1261H1000ZM942.667 1146.33L903.25 1104.77L976.35 1031.67H742V974.333H976.35L903.25 901.233L942.667 859.667L1086 1003L942.667 1146.33Z" fill="#AABDCF"/>
</g>
<defs>
<clipPath id="clip0_1066_43">
<rect width="2000" height="2000" fill="white"/>
</clipPath>
</defs>
</svg>
